<svg width="323" height="290" viewBox="0 0 323 290" fill="none" xmlns="http://www.w3.org/2000/svg">
<path d="M161.29 289.575C206.58 289.575 251.87 289.594 297.151 289.556C310.085 289.546 319.331 282.558 322.315 270.559C323.978 263.868 322.486 257.686 319.093 251.753C298.52 215.871 278.022 179.93 257.496 144.019C232.789 100.783 208.072 57.5472 183.374 14.3017C174.86 -0.606182 158.505 -4.52275 146.171 5.69105C143.444 7.94692 141.229 11.0955 139.443 14.2249C94.4376 92.7771 49.5274 171.377 4.60773 249.978C-4.06833 265.154 -0.219696 281.07 13.9585 287.137C17.7596 288.759 22.2164 289.45 26.3786 289.47C71.3458 289.633 116.313 289.575 161.29 289.575ZM161.385 277.029C116.427 277.029 71.4694 277.029 26.5117 277.019C24.7821 277.019 22.9861 277.106 21.3232 276.702C12.9037 274.629 9.77722 265.941 14.5001 257.657C30.5883 229.444 46.7431 201.27 62.8598 173.076C91.9384 122.209 120.988 71.3224 150.153 20.503C151.53 18.1031 153.459 15.6649 155.74 14.2441C161.993 10.3372 168.312 12.9482 172.817 20.8294C217.86 99.6119 262.894 178.404 307.918 257.196C313.952 267.746 308.726 277.029 296.733 277.029C251.623 277.038 206.504 277.029 161.385 277.029Z" fill="#FCFF58"/>
<path d="M161.481 79.2625C150.857 79.2625 144.851 84.0911 141.972 94.4393C139.596 102.992 140.746 111.536 141.506 120.089C142.912 135.813 144.471 151.527 145.868 167.251C146.638 175.833 147.046 184.444 147.92 193.016C148.795 201.55 153.537 205.774 161.595 205.745C169.634 205.706 174.129 201.502 174.899 192.766C176.885 170.208 178.842 147.639 180.563 125.061C181.237 116.201 181.855 107.255 181.389 98.4134C180.753 86.2029 172.998 79.2625 161.481 79.2625Z" fill="#FCFF58"/>
<path d="M144.015 233.612C143.986 243.356 151.779 251.275 161.395 251.256C171.012 251.246 178.747 243.308 178.681 233.535C178.614 223.83 171.24 216.429 161.557 216.343C151.655 216.247 144.043 223.744 144.015 233.612Z" fill="#FCFF58"/>
</svg>
